<svg width="172" height="159" viewBox="0 0 172 159" fill="none" xmlns="http://www.w3.org/2000/svg">
<path d="M135.627 83.5449C135.627 97.4537 127.731 112.694 117.15 124.731C111.925 130.675 106.242 135.606 100.944 139.007C95.4934 142.507 91.0577 144.001 88.2043 144.001C85.351 144.001 80.9153 142.507 75.4646 139.007C70.1668 135.606 64.4834 130.675 59.2583 124.731C48.6774 112.694 40.7812 97.4537 40.7812 83.5449C40.7812 69.9921 47.2033 61.8035 56.1891 56.7016C65.5178 51.405 77.6825 49.471 88.2043 49.471C98.7262 49.471 110.891 51.405 120.22 56.7016C129.205 61.8035 135.627 69.9921 135.627 83.5449Z" stroke="#525252" stroke-width="11"/>
<path d="M95.5142 134.762C95.5142 136.191 94.444 138.563 92.1327 140.953C91.0726 142.05 89.9664 142.917 89.0398 143.472C88.6611 143.699 88.3832 143.833 88.2024 143.91C88.0216 143.833 87.7437 143.699 87.365 143.472C86.4384 142.917 85.3322 142.05 84.2721 140.953C81.9608 138.563 80.8906 136.191 80.8906 134.762C80.8906 134.093 81.0543 133.806 81.1678 133.648C81.3245 133.43 81.6634 133.1 82.3697 132.754C83.8933 132.007 86.1464 131.661 88.2024 131.661C90.2584 131.661 92.5116 132.007 94.0351 132.754C94.7414 133.1 95.0804 133.43 95.237 133.648C95.3505 133.806 95.5142 134.093 95.5142 134.762Z" stroke="#525252" stroke-width="11"/>
<path d="M110.229 132.635L110.23 132.634L110.229 132.635ZM110.229 132.635L110.227 132.638M110.229 132.635L110.227 132.638M110.227 132.638L110.227 132.638M110.227 132.638L110.227 132.638M110.227 132.638L110.228 132.631L110.227 132.638M110.227 132.638L110.227 132.638M110.227 132.638L110.225 132.645L110.227 132.638M110.227 132.638L110.227 132.638M110.227 132.638L110.218 132.649M110.227 132.638L110.218 132.649M110.218 132.649L110.218 132.649M110.218 132.649L110.218 132.649M110.218 132.649L110.207 132.656L110.218 132.649M110.218 132.649L110.218 132.649M110.218 132.649L110.214 132.655L110.218 132.649M110.218 132.649L110.218 132.649" stroke="#525252" stroke-width="11"/>
<mask id="path-4-inside-1_228_484" fill="white">
<path d="M149.955 159C149.269 159.001 148.593 158.843 147.98 158.538C147.366 158.232 146.833 157.788 146.422 157.241C134.391 141.249 109.777 136.997 109.535 136.957C108.382 136.766 107.352 136.125 106.673 135.177C105.993 134.229 105.718 133.05 105.91 131.901C106.002 131.33 106.206 130.783 106.512 130.292C106.817 129.8 107.217 129.374 107.689 129.038C108.16 128.702 108.694 128.462 109.26 128.333C109.825 128.204 110.41 128.188 110.981 128.286C112.137 128.48 139.353 133.189 153.479 151.973C153.971 152.626 154.271 153.402 154.345 154.214C154.419 155.027 154.264 155.844 153.898 156.574C153.532 157.304 152.969 157.918 152.273 158.346C151.576 158.775 150.773 159.001 149.955 159ZM13.2369 145.809C12.2693 145.815 11.3265 145.504 10.5542 144.923C9.78199 144.342 9.22336 143.523 8.96477 142.593C8.70619 141.664 8.76206 140.675 9.12375 139.78C9.48544 138.885 10.1328 138.134 10.9656 137.643C34.093 123.81 65.4544 128.08 66.7818 128.264C67.939 128.43 68.9829 129.047 69.6842 129.979C70.3855 130.912 70.6867 132.084 70.5217 133.237C70.4422 133.81 70.25 134.361 69.9562 134.859C69.6623 135.357 69.2726 135.792 68.8095 136.139C68.3463 136.487 67.8189 136.739 67.2575 136.883C66.6961 137.026 66.1118 137.057 65.5382 136.975C65.2471 136.935 35.9145 132.978 15.5038 145.184C14.8186 145.593 14.0352 145.809 13.2369 145.809Z"/>
</mask>
<path d="M149.955 159L149.971 148L149.952 148L149.933 148L149.955 159ZM146.422 157.241L155.219 150.637L155.212 150.628L146.422 157.241ZM109.535 136.957L107.73 147.808L107.747 147.811L107.764 147.814L109.535 136.957ZM105.91 131.901L116.761 133.706L116.765 133.678L116.77 133.65L105.91 131.901ZM110.981 128.286L109.121 139.128L109.143 139.132L109.165 139.135L110.981 128.286ZM153.479 151.973L144.687 158.585L144.693 158.592L144.698 158.599L153.479 151.973ZM13.2369 145.809L13.2347 134.809L13.1974 134.809L13.1602 134.809L13.2369 145.809ZM10.9656 137.643L16.5526 147.119L16.5824 147.101L16.6121 147.083L10.9656 137.643ZM66.7818 128.264L68.3392 117.375L68.3184 117.372L68.2976 117.369L66.7818 128.264ZM70.5217 133.237L59.6325 131.68L59.6294 131.702L59.6264 131.724L70.5217 133.237ZM65.5382 136.975L67.105 126.087L67.0625 126.081L67.02 126.075L65.5382 136.975ZM15.5038 145.184L21.1363 154.633L21.143 154.629L21.1496 154.625L15.5038 145.184ZM149.933 148C150.955 147.998 151.965 148.234 152.882 148.691L143.077 168.385C145.221 169.452 147.584 170.005 149.977 170L149.933 148ZM152.882 148.691C153.8 149.148 154.601 149.813 155.219 150.637L137.625 163.845C139.065 165.763 140.933 167.317 143.077 168.385L152.882 148.691ZM155.212 150.628C147.437 140.292 136.11 134.282 127.634 130.9C118.981 127.448 111.939 126.204 111.306 126.101L107.764 147.814C107.373 147.75 112.759 148.652 119.482 151.334C126.381 154.086 133.377 158.198 137.632 163.854L155.212 150.628ZM111.339 126.106C113.053 126.391 114.592 127.344 115.612 128.768L97.7326 141.586C100.113 144.906 103.711 147.14 107.73 147.808L111.339 126.106ZM115.612 128.768C116.634 130.193 117.049 131.969 116.761 133.706L95.0588 130.096C94.3873 134.132 95.3516 138.265 97.7326 141.586L115.612 128.768ZM116.77 133.65C116.63 134.52 116.318 135.352 115.854 136.098L97.1688 124.485C96.0944 126.214 95.3736 128.14 95.0496 130.151L116.77 133.65ZM115.854 136.098C115.391 136.844 114.785 137.488 114.073 137.996L101.305 120.08C99.6495 121.26 98.2432 122.757 97.1688 124.485L115.854 136.098ZM114.073 137.996C113.361 138.503 112.557 138.863 111.708 139.057L106.811 117.609C104.832 118.061 102.96 118.9 101.305 120.08L114.073 137.996ZM111.708 139.057C110.859 139.251 109.98 139.275 109.121 139.128L112.842 117.445C110.84 117.101 108.791 117.157 106.811 117.609L111.708 139.057ZM109.165 139.135C109.299 139.158 115.527 140.213 123.216 143.346C131.043 146.534 139.316 151.442 144.687 158.585L162.27 145.362C153.515 133.72 141.117 126.882 131.516 122.971C121.777 119.004 113.819 117.608 112.798 117.437L109.165 139.135ZM144.698 158.599C143.957 157.617 143.503 156.445 143.39 155.213L165.299 153.215C165.039 150.359 163.985 147.634 162.259 145.348L144.698 158.599ZM143.39 155.213C143.278 153.982 143.513 152.746 144.065 151.643L163.731 161.505C165.016 158.943 165.56 156.072 165.299 153.215L143.39 155.213ZM144.065 151.643C144.618 150.541 145.466 149.619 146.509 148.977L158.036 167.716C160.473 166.217 162.446 164.067 163.731 161.505L144.065 151.643ZM146.509 148.977C147.552 148.336 148.751 147.998 149.971 148L149.938 170C152.796 170.004 155.6 169.214 158.036 167.716L146.509 148.977ZM13.1602 134.809C14.6025 134.799 16.0115 135.263 17.1692 136.134L3.93931 153.712C6.64154 155.746 9.93623 156.832 13.3137 156.808L13.1602 134.809ZM17.1692 136.134C18.3275 137.006 19.1711 138.239 19.5624 139.645L-1.63288 145.541C-0.724395 148.807 1.2365 151.677 3.93931 153.712L17.1692 136.134ZM19.5624 139.645C19.9539 141.053 19.869 142.55 19.3221 143.903L-1.07459 135.658C-2.34488 138.8 -2.54148 142.275 -1.63288 145.541L19.5624 139.645ZM19.3221 143.903C18.7754 145.255 17.7997 146.384 16.5526 147.119L5.37864 128.168C2.46589 129.885 0.195496 132.516 -1.07459 135.658L19.3221 143.903ZM16.6121 147.083C26.019 141.457 37.6314 139.268 47.6923 138.678C57.6005 138.097 64.9906 139.121 65.2661 139.159L68.2976 117.369C67.2456 117.223 58.2913 116.019 46.4051 116.716C34.6716 117.404 19.0396 119.996 5.31914 128.203L16.6121 147.083ZM65.2245 139.153C63.5052 138.908 61.9453 137.99 60.8927 136.59L78.4757 123.368C76.0206 120.103 72.3729 117.952 68.3392 117.375L65.2245 139.153ZM60.8927 136.59C59.8393 135.19 59.3833 133.423 59.6325 131.68L81.411 134.794C81.9902 130.744 80.9316 126.633 78.4757 123.368L60.8927 136.59ZM59.6264 131.724C59.7469 130.856 60.0383 130.022 60.4823 129.269L79.43 140.449C80.4618 138.7 81.1375 136.764 81.4171 134.751L59.6264 131.724ZM60.4823 129.269C60.9263 128.516 61.5138 127.861 62.2097 127.339L75.4093 144.94C77.0314 143.723 78.3983 142.197 79.43 140.449L60.4823 129.269ZM62.2097 127.339C62.9054 126.817 63.6959 126.439 64.5353 126.225L69.9796 147.541C71.9419 147.039 73.7873 146.156 75.4093 144.94L62.2097 127.339ZM64.5353 126.225C65.3748 126.01 66.2479 125.964 67.105 126.087L63.9713 147.863C65.9756 148.151 68.0173 148.042 69.9796 147.541L64.5353 126.225ZM67.02 126.075C66.4918 126.003 58.3396 124.921 47.4773 125.503C36.8137 126.074 22.297 128.305 9.85796 135.744L21.1496 154.625C29.1213 149.858 39.4761 147.963 48.6543 147.472C57.6338 146.991 64.2934 147.907 64.0563 147.875L67.02 126.075ZM9.87127 135.736C10.8903 135.128 12.0525 134.809 13.2347 134.809L13.2391 156.809C16.018 156.808 18.747 156.057 21.1363 154.633L9.87127 135.736Z" fill="#525252" mask="url(#path-4-inside-1_228_484)"/>
<path d="M66.1603 132.607L66.1595 132.607L66.1603 132.607ZM66.1603 132.607L66.1802 132.594L66.1603 132.607Z" stroke="#525252" stroke-width="11"/>
<path d="M67.2422 105.465V96.8015C67.2428 96.7897 67.2438 96.7729 67.2454 96.7513C67.2521 96.6575 67.2682 96.4875 67.3047 96.2689C67.3822 95.8058 67.5267 95.272 67.7612 94.8046C67.9846 94.3591 68.2342 94.0784 68.5079 93.8965C68.748 93.737 69.3166 93.442 70.5627 93.442C71.8088 93.442 72.3774 93.737 72.6175 93.8965C72.8912 94.0784 73.1408 94.3591 73.3642 94.8046C73.5987 95.272 73.7432 95.8058 73.8207 96.2689C73.8572 96.4875 73.8733 96.6575 73.88 96.7513C73.8816 96.7729 73.8826 96.7897 73.8832 96.8015V105.465C73.8826 105.477 73.8816 105.494 73.88 105.515C73.8733 105.609 73.8572 105.779 73.8207 105.998C73.7432 106.461 73.5987 106.994 73.3642 107.462C73.1408 107.907 72.8912 108.188 72.6175 108.37C72.3774 108.53 71.8088 108.825 70.5627 108.825C69.3166 108.825 68.748 108.53 68.5079 108.37C68.2342 108.188 67.9846 107.907 67.7612 107.462C67.5267 106.994 67.3822 106.461 67.3047 105.998C67.2682 105.779 67.2521 105.609 67.2454 105.515C67.2438 105.494 67.2428 105.477 67.2422 105.465ZM102.524 105.465V96.8015C102.525 96.7897 102.526 96.7729 102.527 96.7513C102.534 96.6575 102.55 96.4875 102.587 96.2689C102.664 95.8058 102.809 95.272 103.043 94.8046C103.267 94.3591 103.516 94.0784 103.79 93.8965C104.03 93.737 104.599 93.442 105.845 93.442C107.091 93.442 107.659 93.737 107.9 93.8965C108.173 94.0784 108.423 94.3591 108.646 94.8046C108.881 95.272 109.025 95.8058 109.103 96.2689C109.139 96.4875 109.155 96.6575 109.162 96.7513C109.164 96.7729 109.165 96.7897 109.165 96.8015V105.465C109.165 105.477 109.164 105.494 109.162 105.515C109.155 105.609 109.139 105.779 109.103 105.998C109.025 106.461 108.881 106.994 108.646 107.462C108.423 107.907 108.173 108.188 107.9 108.37C107.659 108.53 107.091 108.825 105.845 108.825C104.599 108.825 104.03 108.53 103.79 108.37C103.516 108.188 103.267 107.907 103.043 107.462C102.809 106.994 102.664 106.461 102.587 105.998C102.55 105.779 102.534 105.609 102.527 105.515C102.526 105.494 102.525 105.477 102.524 105.465Z" stroke="#525252" stroke-width="11"/>
<path d="M56.2436 35.1766C56.2436 49.1227 44.8997 60.4563 30.8718 60.4563C16.8438 60.4563 5.5 49.1227 5.5 35.1766C5.5 21.2305 16.8438 9.89687 30.8718 9.89687C44.8997 9.89687 56.2436 21.2305 56.2436 35.1766Z" stroke="#525252" stroke-width="11"/>
<path d="M166.501 30.7797C166.501 44.7258 155.158 56.0594 141.13 56.0594C127.102 56.0594 115.758 44.7258 115.758 30.7797C115.758 16.8336 127.102 5.5 141.13 5.5C155.158 5.5 166.501 16.8336 166.501 30.7797Z" stroke="#525252" stroke-width="11"/>
<path d="M148.86 35.177C148.86 41.8378 143.44 47.2654 136.719 47.2654C129.998 47.2654 124.578 41.8378 124.578 35.177C124.578 28.5163 129.998 23.0886 136.719 23.0886C143.44 23.0886 148.86 28.5163 148.86 35.177Z" stroke="#525252" stroke-width="11"/>
<path d="M51.8328 39.5739C51.8328 46.2347 46.4126 51.6623 39.6918 51.6623C32.971 51.6623 27.5508 46.2347 27.5508 39.5739C27.5508 32.9131 32.971 27.4855 39.6918 27.4855C46.4126 27.4855 51.8328 32.9131 51.8328 39.5739Z" stroke="#525252" stroke-width="11"/>
</svg>
