<svg width="20" height="20" viewBox="0 0 20 20" fill="none" xmlns="http://www.w3.org/2000/svg">
<path d="M10 12C9.68519 12 9.42111 11.904 9.20778 11.712C8.99444 11.52 8.88815 11.2827 8.88889 11C8.88889 10.7167 8.99556 10.479 9.20889 10.287C9.42222 10.095 9.68593 9.99933 10 10C10.3148 10 10.5789 10.096 10.7922 10.288C11.0056 10.48 11.1119 10.7173 11.1111 11C11.1111 11.2833 11.0044 11.521 10.7911 11.713C10.5778 11.905 10.3141 12.0007 10 12ZM5.55556 12C5.24074 12 4.97667 11.904 4.76333 11.712C4.55 11.52 4.44371 11.2827 4.44445 11C4.44445 10.7167 4.55111 10.479 4.76445 10.287C4.97778 10.095 5.24148 9.99933 5.55556 10C5.87037 10 6.13445 10.096 6.34778 10.288C6.56111 10.48 6.66741 10.7173 6.66667 11C6.66667 11.2833 6.56 11.521 6.34667 11.713C6.13333 11.905 5.86963 12.0007 5.55556 12ZM14.4444 12C14.1296 12 13.8656 11.904 13.6522 11.712C13.4389 11.52 13.3326 11.2827 13.3333 11C13.3333 10.7167 13.44 10.479 13.6533 10.287C13.8667 10.095 14.1304 9.99933 14.4444 10C14.7593 10 15.0233 10.096 15.2367 10.288C15.45 10.48 15.5563 10.7173 15.5556 11C15.5556 11.2833 15.4489 11.521 15.2356 11.713C15.0222 11.905 14.7585 12.0007 14.4444 12ZM10 16C9.68519 16 9.42111 15.904 9.20778 15.712C8.99444 15.52 8.88815 15.2827 8.88889 15C8.88889 14.7167 8.99556 14.479 9.20889 14.287C9.42222 14.095 9.68593 13.9993 10 14C10.3148 14 10.5789 14.096 10.7922 14.288C11.0056 14.48 11.1119 14.7173 11.1111 15C11.1111 15.2833 11.0044 15.521 10.7911 15.713C10.5778 15.905 10.3141 16.0007 10 16ZM5.55556 16C5.24074 16 4.97667 15.904 4.76333 15.712C4.55 15.52 4.44371 15.2827 4.44445 15C4.44445 14.7167 4.55111 14.479 4.76445 14.287C4.97778 14.095 5.24148 13.9993 5.55556 14C5.87037 14 6.13445 14.096 6.34778 14.288C6.56111 14.48 6.66741 14.7173 6.66667 15C6.66667 15.2833 6.56 15.521 6.34667 15.713C6.13333 15.905 5.86963 16.0007 5.55556 16ZM14.4444 16C14.1296 16 13.8656 15.904 13.6522 15.712C13.4389 15.52 13.3326 15.2827 13.3333 15C13.3333 14.7167 13.44 14.479 13.6533 14.287C13.8667 14.095 14.1304 13.9993 14.4444 14C14.7593 14 15.0233 14.096 15.2367 14.288C15.45 14.48 15.5563 14.7173 15.5556 15C15.5556 15.2833 15.4489 15.521 15.2356 15.713C15.0222 15.905 14.7585 16.0007 14.4444 16ZM2.22222 20C1.61111 20 1.08778 19.804 0.652224 19.412C0.216668 19.02 -0.000738854 18.5493 1.88644e-06 18V4C1.88644e-06 3.45 0.21778 2.979 0.653335 2.587C1.08889 2.195 1.61185 1.99933 2.22222 2H3.33333V0H5.55556V2H14.4444V0H16.6667V2H17.7778C18.3889 2 18.9122 2.196 19.3478 2.588C19.7833 2.98 20.0007 3.45067 20 4V18C20 18.55 19.7822 19.021 19.3467 19.413C18.9111 19.805 18.3881 20.0007 17.7778 20H2.22222ZM2.22222 18H17.7778V8H2.22222V18Z" fill="#30900E"/>
</svg>
