<svg width="29" height="29" viewBox="0 0 29 29" fill="none" xmlns="http://www.w3.org/2000/svg">
<path d="M8.27393 15.1558C8.44033 15.1558 8.59992 15.0897 8.71759 14.972C8.83526 14.8543 8.90137 14.6947 8.90137 14.5283C8.90137 14.3619 8.83526 14.2023 8.71759 14.0847C8.59992 13.967 8.44033 13.9009 8.27393 13.9009C8.10752 13.9009 7.94793 13.967 7.83026 14.0847C7.71259 14.2023 7.64648 14.3619 7.64648 14.5283C7.64648 14.6947 7.71259 14.8543 7.83026 14.972C7.94793 15.0897 8.10752 15.1558 8.27393 15.1558ZM14.5483 15.1558C14.7147 15.1558 14.8743 15.0897 14.992 14.972C15.1097 14.8543 15.1758 14.6947 15.1758 14.5283C15.1758 14.3619 15.1097 14.2023 14.992 14.0847C14.8743 13.967 14.7147 13.9009 14.5483 13.9009C14.3819 13.9009 14.2223 13.967 14.1047 14.0847C13.987 14.2023 13.9209 14.3619 13.9209 14.5283C13.9209 14.6947 13.987 14.8543 14.1047 14.972C14.2223 15.0897 14.3819 15.1558 14.5483 15.1558ZM20.8227 15.1558C20.9891 15.1558 21.1487 15.0897 21.2664 14.972C21.3841 14.8543 21.4502 14.6947 21.4502 14.5283C21.4502 14.3619 21.3841 14.2023 21.2664 14.0847C21.1487 13.967 20.9891 13.9009 20.8227 13.9009C20.6563 13.9009 20.4967 13.967 20.3791 14.0847C20.2614 14.2023 20.1953 14.3619 20.1953 14.5283C20.1953 14.6947 20.2614 14.8543 20.3791 14.972C20.4967 15.0897 20.6563 15.1558 20.8227 15.1558Z" fill="#30900E" stroke="#30900E" stroke-width="2" stroke-linecap="round" stroke-linejoin="round"/>
<path d="M14.5488 27.0771C21.4795 27.0771 27.0976 21.459 27.0976 14.5283C27.0976 7.5976 21.4795 1.97949 14.5488 1.97949C7.61811 1.97949 2 7.5976 2 14.5283C2 21.459 7.61811 27.0771 14.5488 27.0771Z" stroke="#30900E" stroke-width="3" stroke-linecap="round" stroke-linejoin="round"/>
</svg>
