<svg width="48" height="48" viewBox="0 0 48 48" fill="none" xmlns="http://www.w3.org/2000/svg">
<path d="M37.8 40.6L26.6 29.4C25.6 30.2 24.45 30.8333 23.15 31.3C21.85 31.7667 20.4667 32 19 32C15.3667 32 12.292 30.742 9.776 28.226C7.25867 25.7087 6 22.6333 6 19C6 15.3667 7.25867 12.2913 9.776 9.774C12.292 7.258 15.3667 6 19 6C22.6333 6 25.7087 7.258 28.226 9.774C30.742 12.2913 32 15.3667 32 19C32 20.4667 31.7667 21.85 31.3 23.15C30.8333 24.45 30.2 25.6 29.4 26.6L40.65 37.85C41.0167 38.2167 41.2 38.6667 41.2 39.2C41.2 39.7333 41 40.2 40.6 40.6C40.2333 40.9667 39.7667 41.15 39.2 41.15C38.6333 41.15 38.1667 40.9667 37.8 40.6ZM19 28C21.5 28 23.6253 27.1253 25.376 25.376C27.1253 23.6253 28 21.5 28 19C28 16.5 27.1253 14.3747 25.376 12.624C23.6253 10.8747 21.5 10 19 10C16.5 10 14.3747 10.8747 12.624 12.624C10.8747 14.3747 10 16.5 10 19C10 21.5 10.8747 23.6253 12.624 25.376C14.3747 27.1253 16.5 28 19 28Z" fill="#525252"/>
</svg>
