<svg width="81" height="81" viewBox="0 0 81 81" fill="none" xmlns="http://www.w3.org/2000/svg">
<path d="M22.7362 80.75C19.7059 80.75 17.1301 79.4537 15.0089 76.8611C12.8877 74.2685 11.8271 71.1204 11.8271 67.4167H8.1907C6.1907 67.4167 4.47797 66.5456 3.05252 64.8033C1.62707 63.0611 0.915551 60.9693 0.917975 58.5278V36.3056H40.918V18.5278C40.918 16.0833 41.6307 13.99 43.0562 12.2478C44.4816 10.5056 46.1931 9.63594 48.1907 9.6389H55.4634V5.19446C55.4634 3.9352 55.8125 2.8789 56.5107 2.02557C57.2089 1.17224 58.0719 0.747052 59.0998 0.750015H62.7362C63.7665 0.750015 64.6307 1.17668 65.3289 2.03002C66.0271 2.88335 66.3749 3.93816 66.3725 5.19446V9.6389H68.3725C69.9483 9.6389 71.3725 10.1945 72.6452 11.3056C73.918 12.4167 74.7968 13.8982 75.2816 15.75L80.5543 34.8611C80.6755 35.3056 80.7665 35.7693 80.8271 36.2522C80.8877 36.7352 80.918 37.2345 80.918 37.75V67.4167H70.0089C70.0089 71.1204 68.9483 74.2685 66.8271 76.8611C64.7058 79.4537 62.1301 80.75 59.0998 80.75C56.0695 80.75 53.4937 79.4537 51.3725 76.8611C49.2513 74.2685 48.1907 71.1204 48.1907 67.4167H33.6452C33.6452 71.1204 32.5846 74.2685 30.4634 76.8611C28.3422 79.4537 25.7665 80.75 22.7362 80.75ZM22.7362 71.8611C23.7665 71.8611 24.6307 71.4344 25.3289 70.5811C26.0271 69.7278 26.3749 68.673 26.3725 67.4167C26.3725 66.1574 26.0234 65.1011 25.3252 64.2478C24.6271 63.3945 23.764 62.9693 22.7362 62.9722C21.7059 62.9722 20.8416 63.3989 20.1434 64.2522C19.4452 65.1056 19.0974 66.1604 19.0998 67.4167C19.0998 68.6759 19.4489 69.7322 20.1471 70.5856C20.8452 71.4389 21.7083 71.8641 22.7362 71.8611ZM59.0998 71.8611C60.1301 71.8611 60.9943 71.4344 61.6925 70.5811C62.3907 69.7278 62.7386 68.673 62.7362 67.4167C62.7362 66.1574 62.3871 65.1011 61.6889 64.2478C60.9907 63.3945 60.1277 62.9693 59.0998 62.9722C58.0695 62.9722 57.2052 63.3989 56.5071 64.2522C55.8089 65.1056 55.461 66.1604 55.4634 67.4167C55.4634 68.6759 55.8125 69.7322 56.5107 70.5856C57.2089 71.4389 58.0719 71.8641 59.0998 71.8611ZM48.1907 36.3056H73.2816L68.3725 18.5278H48.1907V36.3056ZM0.917975 31.8611V25.1945H4.55434V16.3056H0.917975V9.6389H37.2816V16.3056H33.6452V25.1945H37.2816V31.8611H0.917975ZM10.0089 25.1945H16.3725V16.3056H10.0089V25.1945ZM21.8271 25.1945H28.1907V16.3056H21.8271V25.1945Z" fill="#525252"/>
</svg>
