<svg width="160" height="139" viewBox="0 0 160 139" fill="none" xmlns="http://www.w3.org/2000/svg">
<path d="M63.1751 80.0757C63.1751 81.7406 62.6817 83.3681 61.7574 84.7524C60.833 86.1367 59.5191 87.2156 57.982 87.8527C56.4448 88.4899 54.7533 88.6566 53.1215 88.3318C51.4896 88.007 49.9907 87.2052 48.8142 86.028C47.6376 84.8507 46.8364 83.3508 46.5118 81.718C46.1872 80.0851 46.3538 78.3926 46.9906 76.8544C47.6273 75.3163 48.7055 74.0016 50.0889 73.0766C51.4724 72.1517 53.0988 71.658 54.7627 71.658C56.9938 71.658 59.1335 72.5449 60.7112 74.1235C62.2888 75.7021 63.1751 77.8432 63.1751 80.0757ZM105.237 71.658C103.574 71.658 101.947 72.1517 100.564 73.0766C99.1802 74.0016 98.102 75.3163 97.4653 76.8544C96.8285 78.3926 96.6619 80.0851 96.9865 81.718C97.3111 83.3508 98.1124 84.8507 99.2888 86.028C100.465 87.2052 101.964 88.007 103.596 88.3318C105.228 88.6566 106.919 88.4899 108.457 87.8527C109.994 87.2156 111.308 86.1367 112.232 84.7524C113.156 83.3681 113.65 81.7406 113.65 80.0757C113.65 77.8432 112.763 75.7021 111.186 74.1235C109.608 72.5449 107.468 71.658 105.237 71.658ZM153.399 82.8817C151.921 83.5421 150.32 83.877 148.702 83.8637C146.142 83.869 143.661 82.9753 141.691 81.3384V110.941C141.691 118.383 138.737 125.52 133.478 130.782C128.219 136.044 121.087 139 113.65 139H46.3502C38.9131 139 31.7807 136.044 26.5219 130.782C21.2631 125.52 18.3087 118.383 18.3087 110.941V81.3384C16.3393 82.9753 13.8585 83.869 11.2983 83.8637C9.68043 83.877 8.07858 83.5421 6.60138 82.8817C4.29035 81.8603 2.39771 80.0791 1.23737 77.8335C0.0770395 75.588 -0.28125 73.013 0.221935 70.5356L11.719 9.15619C12.008 7.65575 12.5983 6.2296 13.4542 4.96409C14.3101 3.69858 15.4137 2.62001 16.6983 1.7937C17.9828 0.967389 19.4216 0.410512 20.9275 0.156782C22.4334 -0.0969475 23.9751 -0.0422536 25.4593 0.317555L63.8761 9.92782H96.1239L134.541 0.317555C136.025 -0.0422536 137.567 -0.0969475 139.072 0.156782C140.578 0.410512 142.017 0.967389 143.302 1.7937C144.586 2.62001 145.69 3.69858 146.546 4.96409C147.402 6.2296 147.992 7.65575 148.281 9.15619L159.778 70.5356C160.281 73.013 159.923 75.588 158.763 77.8335C157.602 80.0791 155.71 81.8603 153.399 82.8817ZM53.4307 18.9068L22.7252 11.1905L11.2282 72.6401L53.4307 18.9068ZM130.475 110.941V67.4491L94.0909 21.1515H65.9091L29.5253 67.4491V110.941C29.5438 115.4 31.3223 119.672 34.4736 122.825C37.6249 125.978 41.8936 127.758 46.3502 127.776H74.3917V118.868L64.7875 109.327C63.8932 108.237 63.4361 106.853 63.5053 105.444C63.5744 104.035 64.1648 102.702 65.1616 101.705C66.1584 100.708 67.4903 100.117 68.8983 100.048C70.3063 99.9784 71.6896 100.436 72.7793 101.331L80 108.626L87.2207 101.331C88.3104 100.436 89.6937 99.9784 91.1017 100.048C92.5097 100.117 93.8416 100.708 94.8384 101.705C95.8352 102.702 96.4256 104.035 96.4947 105.444C96.5639 106.853 96.1068 108.237 95.2125 109.327L85.6083 118.868V127.776H113.65C118.106 127.758 122.375 125.978 125.526 122.825C128.678 119.672 130.456 115.4 130.475 110.941ZM148.772 72.6401L137.275 11.1905L106.569 18.9068L148.772 72.6401Z" fill="#525252"/>
<path d="M63.1751 80.0757C63.1751 81.7406 62.6817 83.3681 61.7574 84.7524C60.833 86.1367 59.5191 87.2156 57.982 87.8527C56.4448 88.4899 54.7533 88.6566 53.1215 88.3318C51.4896 88.007 49.9907 87.2052 48.8142 86.028C47.6376 84.8507 46.8364 83.3508 46.5118 81.718C46.1872 80.0851 46.3538 78.3926 46.9906 76.8544C47.6273 75.3163 48.7055 74.0016 50.0889 73.0766C51.4724 72.1517 53.0988 71.658 54.7627 71.658C56.9938 71.658 59.1335 72.5449 60.7112 74.1235C62.2888 75.7021 63.1751 77.8432 63.1751 80.0757ZM105.237 71.658C103.574 71.658 101.947 72.1517 100.564 73.0766C99.1802 74.0016 98.102 75.3163 97.4653 76.8544C96.8285 78.3926 96.6619 80.0851 96.9865 81.718C97.3111 83.3508 98.1124 84.8507 99.2888 86.028C100.465 87.2052 101.964 88.007 103.596 88.3318C105.228 88.6566 106.919 88.4899 108.457 87.8527C109.994 87.2156 111.308 86.1367 112.232 84.7524C113.156 83.3681 113.65 81.7406 113.65 80.0757C113.65 77.8432 112.763 75.7021 111.186 74.1235C109.608 72.5449 107.468 71.658 105.237 71.658ZM153.399 82.8817C151.921 83.5421 150.32 83.877 148.702 83.8637C146.142 83.869 143.661 82.9753 141.691 81.3384V110.941C141.691 118.383 138.737 125.52 133.478 130.782C128.219 136.044 121.087 139 113.65 139H46.3502C38.9131 139 31.7807 136.044 26.5219 130.782C21.2631 125.52 18.3087 118.383 18.3087 110.941V81.3384C16.3393 82.9753 13.8585 83.869 11.2983 83.8637C9.68043 83.877 8.07858 83.5421 6.60138 82.8817C4.29035 81.8603 2.39771 80.0791 1.23737 77.8335C0.0770395 75.588 -0.28125 73.013 0.221935 70.5356L11.719 9.15619C12.008 7.65575 12.5983 6.2296 13.4542 4.96409C14.3101 3.69858 15.4137 2.62001 16.6983 1.7937C17.9828 0.967389 19.4216 0.410512 20.9275 0.156782C22.4334 -0.0969475 23.9751 -0.0422536 25.4593 0.317555L63.8761 9.92782H96.1239L134.541 0.317555C136.025 -0.0422536 137.567 -0.0969475 139.072 0.156782C140.578 0.410512 142.017 0.967389 143.302 1.7937C144.586 2.62001 145.69 3.69858 146.546 4.96409C147.402 6.2296 147.992 7.65575 148.281 9.15619L159.778 70.5356C160.281 73.013 159.923 75.588 158.763 77.8335C157.602 80.0791 155.71 81.8603 153.399 82.8817ZM53.4307 18.9068L22.7252 11.1905L11.2282 72.6401L53.4307 18.9068ZM130.475 110.941V67.4491L94.0909 21.1515H65.9091L29.5253 67.4491V110.941C29.5438 115.4 31.3223 119.672 34.4736 122.825C37.6249 125.978 41.8936 127.758 46.3502 127.776H74.3917V118.868L64.7875 109.327C63.8932 108.237 63.4361 106.853 63.5053 105.444C63.5744 104.035 64.1648 102.702 65.1616 101.705C66.1584 100.708 67.4903 100.117 68.8983 100.048C70.3063 99.9784 71.6896 100.436 72.7793 101.331L80 108.626L87.2207 101.331C88.3104 100.436 89.6937 99.9784 91.1017 100.048C92.5097 100.117 93.8416 100.708 94.8384 101.705C95.8352 102.702 96.4256 104.035 96.4947 105.444C96.5639 106.853 96.1068 108.237 95.2125 109.327L85.6083 118.868V127.776H113.65C118.106 127.758 122.375 125.978 125.526 122.825C128.678 119.672 130.456 115.4 130.475 110.941ZM148.772 72.6401L137.275 11.1905L106.569 18.9068L148.772 72.6401Z" stroke="#525252"/>
</svg>
