<svg width="80" height="80" viewBox="0 0 80 80" fill="none" xmlns="http://www.w3.org/2000/svg">
<path d="M54.15 36.68C57.8958 39.6852 59.9992 43.756 59.9992 48C59.9992 52.244 57.8958 56.3148 54.15 59.32C50.3934 62.3166 45.3049 63.9994 40 63.9994C34.6951 63.9994 29.6066 62.3166 25.85 59.32L54.15 36.68ZM10 0H70C72.6522 0 75.1957 0.842854 77.0711 2.34315C78.9464 3.84344 80 5.87827 80 8V72C80 74.1217 78.9464 76.1566 77.0711 77.6569C75.1957 79.1571 72.6522 80 70 80H10C7.34784 80 4.8043 79.1571 2.92893 77.6569C1.05357 76.1566 0 74.1217 0 72V8C0 5.87827 1.05357 3.84344 2.92893 2.34315C4.8043 0.842854 7.34784 0 10 0ZM15 8C13.6739 8 12.4021 8.42143 11.4645 9.17157C10.5268 9.92172 10 10.9391 10 12C10 13.0609 10.5268 14.0783 11.4645 14.8284C12.4021 15.5786 13.6739 16 15 16C16.3261 16 17.5979 15.5786 18.5355 14.8284C19.4732 14.0783 20 13.0609 20 12C20 10.9391 19.4732 9.92172 18.5355 9.17157C17.5979 8.42143 16.3261 8 15 8ZM30 8C28.6739 8 27.4021 8.42143 26.4645 9.17157C25.5268 9.92172 25 10.9391 25 12C25 13.0609 25.5268 14.0783 26.4645 14.8284C27.4021 15.5786 28.6739 16 30 16C31.3261 16 32.5979 15.5786 33.5355 14.8284C34.4732 14.0783 35 13.0609 35 12C35 10.9391 34.4732 9.92172 33.5355 9.17157C32.5979 8.42143 31.3261 8 30 8ZM40 24C32.0435 24 24.4129 26.5286 18.7868 31.0294C13.1607 35.5303 10 41.6348 10 48C10 54.3652 13.1607 60.4697 18.7868 64.9706C24.4129 69.4714 32.0435 72 40 72C47.9565 72 55.5871 69.4714 61.2132 64.9706C66.8393 60.4697 70 54.3652 70 48C70 41.6348 66.8393 35.5303 61.2132 31.0294C55.5871 26.5286 47.9565 24 40 24Z" fill="#525252"/>
</svg>
