<svg width="16" height="20" viewBox="0 0 16 20" fill="none" xmlns="http://www.w3.org/2000/svg">
<path d="M8 9.5C7.24224 9.5 6.51551 9.23661 5.9797 8.76777C5.44388 8.29893 5.14286 7.66304 5.14286 7C5.14286 6.33696 5.44388 5.70107 5.9797 5.23223C6.51551 4.76339 7.24224 4.5 8 4.5C8.75776 4.5 9.48449 4.76339 10.0203 5.23223C10.5561 5.70107 10.8571 6.33696 10.8571 7C10.8571 7.3283 10.7832 7.65339 10.6397 7.95671C10.4961 8.26002 10.2856 8.53562 10.0203 8.76777C9.755 8.99991 9.44003 9.18406 9.09338 9.3097C8.74674 9.43534 8.37521 9.5 8 9.5ZM8 0C5.87827 0 3.84344 0.737498 2.34315 2.05025C0.842855 3.36301 0 5.14348 0 7C0 12.25 8 20 8 20C8 20 16 12.25 16 7C16 5.14348 15.1571 3.36301 13.6569 2.05025C12.1566 0.737498 10.1217 0 8 0Z" fill="#466F12"/>
</svg>
