<svg width="153" height="139" viewBox="0 0 153 139" fill="none" xmlns="http://www.w3.org/2000/svg">
<path d="M133.701 5.15018V76.6502C133.701 91.8206 127.674 106.37 116.947 117.097C106.22 127.824 91.6712 133.85 76.5008 133.85C61.3304 133.85 46.7814 127.824 36.0543 117.097C25.3272 106.37 19.3008 91.8206 19.3008 76.6502V5.15018L43.8396 29.689C53.4188 23.0068 64.8212 19.4323 76.5008 19.4502C89.1491 19.4502 100.832 23.5543 110.306 30.5041L133.701 5.15018Z" stroke="#525252" stroke-width="10" stroke-linecap="round" stroke-linejoin="round"/>
<path d="M5 98.1004H40.75L12.15 126.7M148 98.1004H112.25L140.85 126.7M55.05 62.3504V62.4219M97.95 62.3504V62.4219M69.35 98.1004C69.35 99.9967 70.1033 101.815 71.4442 103.156C72.7851 104.497 74.6037 105.25 76.5 105.25C78.3963 105.25 80.2149 104.497 81.5558 103.156C82.8967 101.815 83.65 99.9967 83.65 98.1004C83.65 96.2041 82.8967 94.3854 81.5558 93.0446C80.2149 91.7037 78.3963 90.9504 76.5 90.9504C74.6037 90.9504 72.7851 91.7037 71.4442 93.0446C70.1033 94.3854 69.35 96.2041 69.35 98.1004Z" stroke="#525252" stroke-width="10" stroke-linecap="round" stroke-linejoin="round"/>
</svg>
