<svg width="131" height="151" viewBox="0 0 131 151" fill="none" xmlns="http://www.w3.org/2000/svg">
<path d="M65.5 145.499C98.3609 145.499 125 126.695 125 103.499C125 80.3034 98.3609 61.4994 65.5 61.4994C32.6391 61.4994 6 80.3034 6 103.499C6 126.695 32.6391 145.499 65.5 145.499Z" stroke="#525252" stroke-width="11"/>
<path d="M44.5 101.441C48.366 101.441 51.5 98.3074 51.5 94.4414C51.5 90.5754 48.366 87.4414 44.5 87.4414C40.634 87.4414 37.5 90.5754 37.5 94.4414C37.5 98.3074 40.634 101.441 44.5 101.441Z" fill="#525252"/>
<path d="M65.5 122.442C69.366 122.442 72.5 119.308 72.5 115.442C72.5 111.576 69.366 108.442 65.5 108.442C61.634 108.442 58.5 111.576 58.5 115.442C58.5 119.308 61.634 122.442 65.5 122.442Z" fill="#525252"/>
<path d="M86.5 101.441C90.366 101.441 93.5 98.3074 93.5 94.4414C93.5 90.5754 90.366 87.4414 86.5 87.4414C82.634 87.4414 79.5 90.5754 79.5 94.4414C79.5 98.3074 82.634 101.441 86.5 101.441Z" fill="#525252"/>
<path d="M25.835 68.5C21.2325 57.4155 13.2105 30.3955 17.946 12.1955C19.262 8.69554 24.2565 2.74554 33.7275 6.94554C35.04 7.52654 38.0675 9.74554 39.6425 13.9455C43.5905 20.9455 37.6755 65 37.6755 65M105.355 68.5C109.961 57.4155 117.763 30.3955 113.027 12.1955C111.711 8.69554 106.713 2.74554 97.242 6.94554C95.926 7.52654 92.902 9.74554 91.3235 13.9455C87.3755 20.9455 93.5145 61.5 93.5145 61.5" stroke="#525252" stroke-width="11" stroke-linecap="round" stroke-linejoin="round"/>
</svg>
