<svg width="80" height="80" viewBox="0 0 80 80" fill="none" xmlns="http://www.w3.org/2000/svg">
<path d="M3.0392 2.8976C3.00574 2.83632 2.98458 2.76893 2.97693 2.69931C2.96929 2.62968 2.97532 2.55921 2.99466 2.49197C3.01401 2.42472 3.04629 2.36203 3.08965 2.30751C3.13301 2.25299 3.18659 2.20773 3.24729 2.17433L7.06219 0.0657555C7.12264 0.0319384 7.18911 0.0106362 7.25775 0.00308441C7.32638 -0.00446737 7.39581 0.00188144 7.462 0.0217629C7.5282 0.0416443 7.58984 0.0746626 7.64336 0.118902C7.69689 0.163142 7.74122 0.217723 7.77379 0.27948L9.3036 3.11133C15.0876 1.35201 21.4959 3.85415 24.5054 9.44617L17.1132 13.5408C17.7004 14.6332 17.8357 15.9174 17.4896 17.1111C17.1434 18.3047 16.3441 19.3099 15.2674 19.9056C14.1908 20.5013 12.9249 20.6387 11.7485 20.2875C10.572 19.9363 9.58118 19.1253 8.99404 18.0329L1.5993 22.1224C-1.4128 16.533 -0.0294187 9.71203 4.56644 5.73076L3.0392 2.8976ZM55.1209 53.9074H80V80H55.1209V53.9074ZM52.2694 66.9485H32.1763C30.4924 66.9481 28.8774 66.2696 27.6862 65.0621C26.495 63.8545 25.825 62.2165 25.8233 60.5081C25.8243 58.7995 26.4942 57.1613 27.6856 55.9538C28.8769 54.7463 30.4923 54.0683 32.1763 54.069H52.2694V66.9485ZM8.9478 72.173C8.9478 70.733 10.0974 69.564 11.518 69.564H52.2681V79.9974H8.9478V72.1717V72.173ZM24.4001 59.1736C24.398 61.237 23.5884 63.2152 22.1492 64.6731C20.71 66.1311 18.7591 66.9495 16.7253 66.9485C15.7181 66.9493 14.7206 66.7489 13.7898 66.3586C12.8589 65.9684 12.013 65.3959 11.3002 64.674C10.5874 63.952 10.0218 63.0947 9.63555 62.1509C9.24933 61.2072 9.05012 60.1955 9.04927 59.1736C9.04927 54.8822 12.4853 51.4026 16.7253 51.4026C20.9628 51.4026 24.4001 54.8822 24.4001 59.1736ZM66.3511 37.4011L62.034 24.9308C61.1965 22.5798 59.5884 20.7449 55.049 20.7449H35.119C30.581 20.7449 28.9702 22.5798 28.1366 24.9308L23.8208 37.4011C23.4984 38.2064 23.3314 40.0166 25.0873 41.2286L35.2359 48.013C35.9476 48.4891 36.8163 48.6594 37.6516 48.4867C38.4868 48.314 39.2205 47.8123 39.6918 47.0916C39.9242 46.7339 40.0849 46.3332 40.1647 45.9125C40.2445 45.4917 40.2418 45.0591 40.1567 44.6394C40.0717 44.2197 39.906 43.8211 39.669 43.4664C39.4321 43.1117 39.1287 42.8078 38.776 42.5722L30.721 37.186L32.9881 30.8408H36.1261L34.288 35.9884L40.4034 40.0778C41.0803 40.5276 41.6625 41.1093 42.116 41.7892C42.5696 42.469 42.8856 43.2335 43.0456 44.0383C43.2117 44.8427 43.2186 45.6725 43.066 46.4797C42.9135 47.2868 42.6044 48.0552 42.1567 48.7402C41.7978 49.2832 41.3575 49.766 40.8517 50.1711H49.319C48.814 49.7647 48.3734 49.2821 48.0126 48.7402C47.5652 48.0551 47.256 47.2868 47.103 46.4798C46.95 45.6727 46.9562 44.8429 47.1212 44.0383C47.2822 43.2337 47.5988 42.4695 48.0525 41.7898C48.5062 41.11 49.0881 40.5282 49.7647 40.0778L55.8839 35.9884L54.0381 30.8408H57.1787L59.4509 37.186L51.3921 42.5722C49.9111 43.5626 49.4975 45.5917 50.4776 47.0916C51.4576 48.5916 53.4537 49.006 54.9347 48.013L65.0821 41.2286C66.8392 40.0153 66.6723 38.2064 66.3511 37.4011ZM47.0673 8.54045C46.8247 9.0745 46.4365 9.52686 45.9484 9.84397C45.4603 10.1611 44.8929 10.3297 44.3133 10.3297C43.7329 10.3299 43.1645 10.1616 42.6754 9.8445C42.1862 9.52743 41.7968 9.07492 41.553 8.54045H35.9938C35.9039 9.03567 35.8512 9.54261 35.8512 10.0652C35.8529 12.3487 36.7484 14.538 38.3409 16.1516C39.9333 17.7653 42.0922 18.6712 44.3429 18.6702C45.4575 18.6711 46.5613 18.4492 47.5913 18.0172C48.6214 17.5852 49.5575 16.9515 50.3461 16.1525C51.1348 15.3534 51.7606 14.4046 52.1878 13.3601C52.615 12.3156 52.8352 11.196 52.8359 10.0652C52.8359 9.54131 52.7806 9.03567 52.6946 8.54045H47.0686H47.0673ZM41.3655 6.50877C41.5312 5.84297 41.9112 5.25229 42.4451 4.83024C42.9791 4.4082 43.6365 4.1789 44.3133 4.17865C45.734 4.17865 46.9324 5.17429 47.2561 6.50877H52.0729C51.3986 5.00286 50.3112 3.72575 48.9407 2.83002C47.5702 1.9343 45.9744 1.45784 44.3442 1.45757C42.714 1.45816 41.1184 1.93475 39.7479 2.83044C38.3775 3.72612 37.29 5.00305 36.6155 6.50877H41.3655Z" fill="#525252"/>
</svg>
